<?xml version="1.0" standalone="no"?>
<!DOCTYPE svg PUBLIC "-//W3C//DTD SVG 20010904//EN"
 "http://www.w3.org/TR/2001/REC-SVG-20010904/DTD/svg10.dtd">
<svg version="1.0" xmlns="http://www.w3.org/2000/svg"
 width="3840.000000pt" height="2160.000000pt" viewBox="0 0 3840.000000 2160.000000"
 preserveAspectRatio="xMidYMid meet">

<g transform="translate(0.000000,2160.000000) scale(0.100000,-0.100000)"
fill="#000000" stroke="none">
<path d="M0 10800 l0 -10800 19200 0 19200 0 0 10800 0 10800 -19200 0 -19200
0 0 -10800z m20420 9211 c958 -38 1471 -71 2385 -156 1424 -133 3027 -401
4454 -745 365 -88 1025 -263 1206 -319 33 -11 110 -34 170 -51 332 -97 845
-263 1205 -390 80 -29 156 -55 170 -60 39 -12 286 -105 495 -186 163 -63 273
-107 595 -239 580 -238 1405 -641 1973 -964 238 -135 276 -157 477 -281 886
-543 1624 -1119 2256 -1761 207 -211 317 -333 491 -544 166 -201 166 -201 276
-352 588 -809 941 -1631 1066 -2483 39 -270 46 -371 46 -690 0 -317 -6 -395
-46 -680 -188 -1329 -976 -2644 -2289 -3819 -726 -649 -1638 -1271 -2665
-1818 -195 -104 -703 -357 -895 -446 -755 -349 -1477 -633 -2360 -930 -142
-48 -649 -207 -785 -247 -60 -18 -153 -45 -205 -60 -52 -15 -104 -30 -115 -33
-11 -3 -137 -37 -280 -77 -1815 -501 -3965 -863 -6025 -1015 -184 -13 -366
-27 -405 -30 -230 -18 -1023 -53 -1490 -66 -472 -13 -1784 -7 -2190 11 -489
20 -1054 51 -1310 70 -143 11 -323 24 -400 30 -534 40 -1356 131 -2030 225
-1306 183 -2666 461 -3825 782 -91 25 -194 54 -230 63 -371 101 -1085 328
-1545 490 -2232 788 -4072 1799 -5420 2979 -423 370 -864 829 -1144 1191 -140
180 -200 263 -310 425 -496 731 -816 1528 -920 2290 -39 287 -45 371 -45 660
-1 293 7 412 45 680 89 632 329 1307 677 1900 19 33 42 74 52 90 134 233 400
605 630 880 226 271 608 669 865 901 864 781 1893 1465 3135 2085 1099 548
2292 1015 3590 1403 151 45 334 98 365 106 17 4 120 33 230 63 411 115 1103
285 1465 362 41 9 149 32 240 51 444 94 1036 204 1470 274 380 60 448 71 695
105 384 53 690 91 1040 129 535 58 819 84 1470 131 394 28 1201 64 1795 79
253 6 1643 -3 1900 -13z"/>
<path d="M18295 18559 c-2486 -65 -4781 -354 -6965 -876 -315 -75 -661 -164
-870 -222 -36 -10 -117 -33 -180 -51 -2677 -752 -4910 -1874 -6310 -3170
-1197 -1108 -1791 -2305 -1757 -3540 24 -895 363 -1741 1032 -2580 449 -563
1048 -1105 1781 -1612 970 -670 2218 -1296 3549 -1779 61 -22 139 -51 175 -64
165 -61 568 -196 815 -274 308 -97 776 -234 1025 -300 772 -205 1401 -347
2205 -500 1074 -204 2554 -395 3649 -471 1105 -76 1757 -100 2776 -100 1544 0
2889 79 4365 256 1615 193 3308 530 4680 931 105 30 206 60 225 65 48 13 301
92 550 172 174 55 448 148 710 241 244 86 712 270 1020 400 74 32 164 70 200
85 404 170 1114 525 1542 771 240 138 231 133 358 211 875 538 1603 1132 2144
1748 225 256 387 475 601 810 47 74 194 350 244 459 182 392 294 779 348 1196
28 215 25 673 -5 895 -173 1271 -978 2457 -2402 3541 -598 456 -1287 874
-2105 1279 -487 240 -886 415 -1525 665 -423 166 -1275 455 -1680 570 -25 7
-130 38 -235 68 -1395 407 -3101 744 -4735 937 -340 40 -687 76 -895 95 -93 8
-246 21 -340 29 -602 53 -1378 94 -2185 116 -417 11 -1374 11 -1805 -1z
m-6744 -4819 c46 -72 127 -197 180 -278 152 -231 273 -418 441 -677 86 -132
176 -271 201 -310 25 -38 88 -135 140 -215 52 -80 134 -206 182 -280 157 -242
177 -273 281 -432 57 -87 105 -158 107 -158 3 0 38 51 78 113 40 61 223 344
408 627 184 283 479 738 656 1010 177 272 356 548 398 613 l77 117 730 0 730
0 0 -3075 0 -3075 -727 0 -728 0 3 1736 c1 954 -1 1733 -6 1730 -4 -2 -50 -70
-102 -150 -52 -81 -125 -192 -162 -249 -37 -56 -90 -138 -118 -182 -28 -44
-174 -269 -325 -500 -151 -231 -300 -461 -332 -512 l-58 -92 -517 -1 -517 0
-106 163 c-127 193 -257 392 -403 617 -59 90 -152 233 -207 317 -55 84 -165
253 -245 375 l-145 223 -3 -1743 -2 -1742 -725 0 -725 0 0 3080 0 3080 729 0
728 0 84 -130z m10549 -600 l0 -730 -935 0 -935 0 -2 -2347 -3 -2348 -727 -3
-728 -2 0 2350 0 2350 -940 0 -940 0 0 730 0 730 2605 0 2605 0 0 -730z m2455
368 c143 -198 468 -649 723 -1002 254 -352 504 -699 555 -770 51 -70 120 -167
155 -215 34 -47 70 -97 80 -111 9 -14 45 -63 79 -110 34 -47 72 -98 83 -115
12 -16 43 -59 69 -95 27 -36 61 -84 77 -107 95 -136 550 -763 554 -763 3 0 4
821 2 1825 l-2 1825 730 0 730 0 0 -3075 0 -3075 -728 0 -728 0 -35 47 c-58
79 -102 139 -159 219 -30 42 -74 102 -96 133 -23 31 -250 346 -506 701 -255
355 -721 1001 -1034 1435 -314 435 -621 861 -684 948 -62 87 -117 160 -121
163 -5 3 -9 -806 -9 -1820 l0 -1826 -730 0 -730 0 0 3075 0 3075 733 0 732 -1
260 -361z"/>
</g>
</svg>
