<?xml version="1.0" encoding="utf-8"?>
<!-- Generator: Adobe Illustrator 19.2.1, SVG Export Plug-In . SVG Version: 6.00 Build 0)  -->
<svg version="1.1" id="layer" xmlns="http://www.w3.org/2000/svg" xmlns:xlink="http://www.w3.org/1999/xlink" x="0px" y="0px"
	 viewBox="0 0 652 652" style="enable-background:new 0 0 652 652;" xml:space="preserve">
<path d="M326,176c-165.7,0-300,67.2-300,150s134.3,150,300,150s300-67.2,300-150S491.7,176,326,176z M326,452.3
	c-152.6,0-276.3-56.6-276.3-126.3S173.4,199.7,326,199.7S602.3,256.2,602.3,326S478.6,452.3,326,452.3z M288.2,299.7V276h84.6v23.7
	h-30.5V376h-23.7v-76.3H288.2z M475,276v100h-23.7l-43-59.5V376h-23.7V276h23.7l43,59.5V276L475,276z M176.3,376V276H200l26.3,40.5
	l26.3-40.5h23.7v100h-23.7v-56.6l-18,27.6H218l-18-27.6V376H176.3z"/>
</svg>
